<?xml version="1.0" standalone="no"?><!DOCTYPE svg PUBLIC "-//W3C//DTD SVG 1.1//EN" "http://www.w3.org/Graphics/SVG/1.1/DTD/svg11.dtd"><svg t="1531187021431" class="icon" style="" viewBox="0 0 1024 1024" version="1.1" xmlns="http://www.w3.org/2000/svg" p-id="9966" xmlns:xlink="http://www.w3.org/1999/xlink" width="200" height="200"><defs><style type="text/css"></style></defs><path d="M933.555697 848.457143 108.106949 848.457143c-16.940247 0-30.73806-16.073369-30.73806-35.83097L77.368889 211.373827c0-19.757601 13.797813-35.86709 30.73806-35.86709l825.448748 0c16.976367 0 30.77418 16.073369 30.77418 35.86709l0 601.252346C964.293757 832.383774 950.495944 848.457143 933.555697 848.457143zM112.188501 807.749982l817.285644 0L929.474145 216.105538 112.188501 216.105538 112.188501 807.749982z" p-id="9967"></path><path d="M933.555697 848.818342 108.106949 848.818342c-6.140388 0-12.100176-2.058836-17.156966-6.140388l-17.445926-13.833933 295.099824-344.403527 152.209383 177.637813 152.209383-177.637813 295.244303 344.620247-17.662646 13.689453C945.511393 846.831746 939.659965 848.818342 933.555697 848.818342zM368.64 541.871182l-228.855873 267.142998 761.480353-0.758519-228.169594-266.38448-129.670547 151.306384c-11.991817 14.050653-33.085855 14.050653-45.113792 0L368.64 541.871182z" p-id="9968"></path><path d="M520.813263 702.857707c-8.524303 0-16.542928-3.937072-22.574956-11.016578L73.612416 196.239577l16.253968-14.086772c5.34575-4.587231 11.630617-6.971146 18.240564-6.971146l825.448748 0c6.609947 0 12.858695 2.347795 18.240564 6.971146l16.253968 14.086772L543.388219 691.841129C537.39231 698.920635 529.337566 702.857707 520.813263 702.857707zM139.603527 215.744339l381.245855 444.997531L902.781517 214.87746 139.603527 215.744339z" p-id="9969"></path></svg>