<?xml version="1.0" standalone="no"?><!DOCTYPE svg PUBLIC "-//W3C//DTD SVG 1.1//EN" "http://www.w3.org/Graphics/SVG/1.1/DTD/svg11.dtd"><svg t="1531186932919" class="icon" style="" viewBox="0 0 1024 1024" version="1.1" xmlns="http://www.w3.org/2000/svg" p-id="6237" xmlns:xlink="http://www.w3.org/1999/xlink" width="200" height="200"><defs><style type="text/css"></style></defs><path d="M127.436 522.016c0 167.92 107.606 310.692 257.606 363.1 20.18 5.122 17.094-9.336 17.094-19.126v-66.64c-116.642 13.704-121.31-63.554-129.218-76.432-15.888-27.032-53.238-33.884-42.092-46.76 26.58-13.706 53.614 3.462 85.014 49.772 22.74 33.586 66.868 27.938 89.382 22.29 4.896-20.18 15.438-38.178 29.82-52.26-120.708-21.46-171.16-95.256-171.16-182.98 0-42.47 14.006-81.628 41.566-113.18-17.47-52.108 1.658-96.534 4.218-103.16 49.924-4.52 101.732 35.692 105.798 38.854 28.388-7.606 60.768-11.748 96.988-11.748 36.446 0 68.976 4.218 97.514 11.9 9.714-7.38 57.832-41.868 104.218-37.652 2.484 6.626 21.16 50.076 4.744 101.43 27.86 31.628 42.018 71.01 42.018 113.706 0 87.876-50.678 161.746-171.838 183.056 20.256 19.956 32.756 47.666 32.756 78.314v96.686c0.68 7.68 0 15.438 12.952 15.438 152.184-51.28 261.748-195.106 261.748-364.534 0-212.424-172.214-384.562-384.564-384.562-212.424-0.076-384.564 172.062-384.564 384.488z" p-id="6238"></path></svg>